# xmcd
#
# Track frame offsets:
# 150
# 13057
# 31502
# 54726
# 80148
# 102400
# 119271
# 145682
# 169094
# 193910
# 217695
# 247126
# 259424
# 292129
# 308641
# 329319
#
# Disc length: 4790 seconds
#
# Revision: 0
# Processed by: cddbd v1.4PL0 Copyright (c) Steve Scherf et al.
# Submitted via: Audion 3.0.2 (http://www.panic.com/audion/)
#
DISCID=ec12b410
DTITLE=Various Artist - Daivds Burned
DYEAR=1900
DGENRE=
TTITLE0=Solve Et Coagula
TTITLE1=Not Falling
TTITLE2=Key to Nothing
TTITLE3=World So Cold
TTITLE4=Mercy, Severity
TTITLE5=Maynards Dick
TTITLE6=Spasm
TTITLE7=Diary of a Madman
TTITLE8=Nothing To GEin
TTITLE9=Cradle
TTITLE10=Severed
TTITLE11=Dig
TTITLE12=Bottom
TTITLE13=Surfacing
TTITLE14=Hooker with a Penis
TTITLE15=Aenima
EXTD=
EXTT0=
EXTT1=
EXTT2=
EXTT3=
EXTT4=
EXTT5=
EXTT6=
EXTT7=
EXTT8=
EXTT9=
EXTT10=
EXTT11=
EXTT12=
EXTT13=
EXTT14=
EXTT15=
PLAYORDER=
